<svg width="300" height="55" viewBox="0 0 300 55" fill="none" xmlns="http://www.w3.org/2000/svg">
<path d="M1.58274 46.387V18.0041C1.58274 15.5445 1.46619 13.8267 1 11.6794C4.80721 11.2109 6.8662 10.7424 9.66334 10.7424C16.2288 10.7424 22.2504 13.5924 22.2504 21.2055C22.2504 26.476 18.8317 29.0918 15.6849 30.3411C17.8216 30.6925 20.6576 31.6294 22.6001 33.3082C25.7468 35.963 26.2519 39.2034 26.2519 41.8582C26.2519 46.8164 23.9209 49.7055 21.5511 51.3843C19.1037 53.063 15.3353 54 12.072 54C7.83743 54 10.0907 53.1802 1 52.5945C1.46619 50.4863 1.58274 48.8076 1.58274 46.387ZM11.7223 52.126C14.8691 52.126 17.7828 51.15 19.6475 49.3932C21.3569 47.8315 22.5612 45.3719 22.5612 42.4438C22.5612 37.6418 19.2591 34.4404 15.918 33.0349C14.3641 32.4103 12.0331 31.9418 10.518 31.9418C10.1684 31.9418 9.62449 31.9418 7.60434 32.176L8.38132 29.8726C8.76981 29.9507 9.27485 29.9507 9.66334 29.9507C11.9166 29.9507 14.3252 29.4041 15.9569 28.2329C18.4821 26.437 18.754 23.7822 18.754 21.9863C18.754 19.7609 18.2878 18.1212 16.8116 16.2472C14.3641 13.202 11.5281 12.6554 9.46909 12.6554C6.90505 12.6554 5.81728 13.1239 5.0403 13.5924V50.4863C6.63311 51.3843 8.88636 52.126 11.7223 52.126Z" fill="#DE0052" stroke="#DE0052"/>
<path d="M36.3523 35.8459V47.5973C41.0142 42.6 48.1624 33.3082 52.7855 26.9445L54.3394 26.5541C53.9509 28.8185 53.8344 30.8876 53.8344 35.8459V42.4048C53.8344 48.4171 54.0675 50.7205 54.456 52.6336L50.4934 53.2192C50.8819 50.9938 50.9984 49.1199 50.9984 43.9274V32.4102C48.8617 34.6746 45.3653 38.5007 34.643 52.9069L33.089 53.2582C33.3998 51.15 33.5552 49.0027 33.5552 43.9664V37.3685C33.5552 31.3561 33.3221 29.0527 32.9336 27.1397L36.8962 26.5541C36.4689 28.8185 36.3523 30.8876 36.3523 35.8459Z" fill="#DE0052" stroke="#DE0052"/>
<path d="M68.2474 47.0898V27.9987C67.3538 27.9206 66.6157 27.9206 65.9164 27.9206C61.9538 27.9206 59.8948 28.5843 58.3409 29.5603L57.9912 29.3261L59.2732 26.5151H73.492C77.0272 26.5151 80.3683 26.3199 80.9898 23.7822L81.5337 23.9774L80.951 26.3589C80.4071 28.5062 78.892 28.6624 78.1539 28.6624C76.9495 28.6624 75.8229 28.4281 74.5409 28.2329C73.6085 28.1158 72.8704 27.9987 71.8215 27.9987H71.0445V47.0507C71.0445 49.5884 71.0445 50.7987 71.433 52.7117L67.82 53.2192C68.1697 51.2672 68.2474 49.6665 68.2474 47.0898Z" fill="#DE0052" stroke="#DE0052"/>
<path d="M84.5641 29.1697C84.4476 29.0526 84.4087 28.9355 84.4087 28.8184C84.4087 28.7793 84.4476 28.6622 84.5252 28.506C85.108 27.7643 86.5842 27.2177 86.9727 27.0615C88.6044 26.3978 89.8864 25.9293 92.2562 25.9293C96.1411 25.9293 98.7828 27.2177 100.337 28.5841C103.134 30.9656 103.6 33.8547 103.6 36.0019V49.7054V50.5252C103.6 51.1109 103.639 51.7355 103.989 52.6335C101.075 53.0239 98.1224 53.2191 94.8979 53.2191C92.1785 53.2191 88.5655 53.0239 86.0404 51.228C84.0979 49.8225 82.5439 47.2458 82.5439 44.4348C82.5439 42.5999 83.1267 40.1793 85.9627 38.2273C88.6821 36.3533 92.1785 36.1191 93.8102 36.1191C96.1023 36.1191 98.4721 36.4314 100.725 37.0951V36.3143C100.725 34.167 100.259 31.0437 98.5109 29.2869C97.5397 28.3108 95.7915 27.3348 92.8001 27.3348C91.5958 27.3348 89.8476 27.53 88.4879 28.3889C87.5166 29.0136 87.0893 29.7944 87.0893 30.7704C87.0893 31.0828 87.2058 31.5512 87.7886 32.5273L87.4389 32.8786L84.5641 29.1697ZM100.803 39.5937C98.7051 38.3444 96.1023 37.6026 93.8102 37.6026C91.5958 37.6026 89.2648 38.2663 87.7497 39.6718C86.5842 40.765 85.6907 42.6389 85.6907 44.6691C85.6907 47.7143 87.0893 51.8136 94.7814 51.8136C97.7339 51.8136 99.3656 51.228 100.764 50.291V39.5937H100.803Z" fill="#DE0052" stroke="#DE0052"/>
<path d="M109.156 26.5541C109.311 26.3199 109.506 25.9685 109.972 25.9685C110.36 25.9685 110.904 26.2808 111.953 27.374C114.673 30.3021 113.585 29.287 124.191 39.3596C120.927 42.6781 116.615 47.2459 113.235 50.9939C112.458 51.8918 111.875 52.4774 111.176 53.6877L106.98 52.6336C110.283 50.2521 111.992 48.0658 114.439 45.6062L120.85 39.1254L120.888 38.8911C118.635 35.8069 114.945 32.2932 111.526 29.9507C111.021 29.5993 110.166 29.0137 109.389 29.0137C108.612 29.0137 108.107 29.5212 107.524 30.1069L107.175 29.7555L109.156 26.5541ZM128.386 26.5541C127.998 28.8185 127.881 30.8877 127.881 35.8459V42.4048C127.881 48.4172 128.114 50.7206 128.542 52.6336L124.579 53.2192C124.968 50.9939 125.123 49.1199 125.123 43.9274V37.3685C125.123 31.3562 124.89 29.0528 124.463 27.1397L128.386 26.5541ZM145.286 30.1069C144.703 29.5212 144.237 29.0137 143.421 29.0137C142.605 29.0137 141.789 29.5993 141.284 29.9507C137.865 32.2932 134.175 35.8069 131.922 38.8911L131.999 39.1254L138.409 45.6062C140.857 48.0658 142.527 50.2131 145.868 52.6336L141.673 53.6877C140.973 52.4384 140.391 51.8528 139.614 50.9939C136.234 47.2459 131.922 42.6781 128.658 39.3596C139.264 29.287 138.137 30.3021 140.896 27.374C141.945 26.2418 142.45 25.9685 142.877 25.9685C143.343 25.9685 143.499 26.3199 143.693 26.5541L145.674 29.7945L145.286 30.1069Z" fill="#DE0052" stroke="#DE0052"/>
<path d="M153.094 35.8459V47.5973C157.755 42.6 164.904 33.3082 169.527 26.9445L171.081 26.5541C170.692 28.8185 170.576 30.8876 170.576 35.8459V42.4048C170.576 48.4171 170.809 50.7205 171.197 52.6336L167.235 53.2192C167.623 50.9938 167.74 49.1199 167.74 43.9274V32.4102C165.603 34.6746 162.107 38.5007 151.384 52.9069L149.83 53.2582C150.141 51.15 150.296 49.0027 150.296 43.9664V37.3685C150.296 31.3561 150.063 29.0527 149.675 27.1397L153.637 26.5541C153.21 28.8185 153.094 30.8876 153.094 35.8459Z" fill="#DE0052" stroke="#DE0052"/>
<path d="M182.153 26.5541C181.764 28.8184 181.648 30.8876 181.648 35.8458V38.1102C183.551 38.3445 185.261 38.5006 188.097 38.5006C191.826 38.5006 193.613 38.5006 195.828 38.1493V37.3294C195.828 31.3171 195.595 29.0136 195.167 27.1006L199.13 26.515C198.741 28.7794 198.625 30.8486 198.625 35.8068V42.3657C198.625 48.3781 198.858 50.6815 199.285 52.5945L195.323 53.1801C195.711 50.9548 195.867 49.0808 195.867 43.8883V40.3746C193.652 40.0233 192.564 39.9842 190.311 39.9842H188.446H185.805C184.6 39.9842 183.318 40.0233 181.609 40.3356V42.4048C181.609 48.4171 181.842 50.7205 182.231 52.6335L178.268 53.2192C178.656 50.9938 178.773 49.1198 178.773 43.9274V37.3685C178.773 31.3561 178.54 29.0527 178.151 27.1397L182.153 26.5541Z" fill="#DE0052" stroke="#DE0052"/>
<path d="M206.745 29.1697C206.628 29.0526 206.589 28.9355 206.589 28.8184C206.589 28.7793 206.628 28.6622 206.706 28.506C207.289 27.7643 208.765 27.2177 209.153 27.0615C210.785 26.3978 212.067 25.9293 214.437 25.9293C218.322 25.9293 220.964 27.2177 222.517 28.5841C225.315 30.9656 225.781 33.8547 225.781 36.0019V49.7054V50.5252C225.781 51.1109 225.82 51.7355 226.169 52.6335C223.256 53.0239 220.303 53.2191 217.079 53.2191C214.359 53.2191 210.746 53.0239 208.221 51.228C206.279 49.8225 204.725 47.2458 204.725 44.4348C204.725 42.5999 205.307 40.1793 208.143 38.2273C210.863 36.3533 214.359 36.1191 215.991 36.1191C218.283 36.1191 220.653 36.4314 222.906 37.0951V36.3143C222.906 34.167 222.44 31.0437 220.692 29.2869C219.72 28.3108 217.972 27.3348 214.981 27.3348C213.776 27.3348 212.028 27.53 210.669 28.3889C209.697 29.0136 209.27 29.7944 209.27 30.7704C209.27 31.0828 209.386 31.5512 209.969 32.5273L209.62 32.8786L206.745 29.1697ZM223.023 39.5937C220.925 38.3444 218.322 37.6026 216.03 37.6026C213.815 37.6026 211.484 38.2663 209.969 39.6718C208.804 40.765 207.91 42.6389 207.91 44.6691C207.91 47.7143 209.309 51.8136 217.001 51.8136C219.953 51.8136 221.585 51.228 222.984 50.291V39.5937H223.023Z" fill="#DE0052" stroke="#DE0052"/>
<path d="M251.615 51.7356C251.382 51.0329 251.227 50.4082 250.994 49.7055C249.012 43.7322 246.137 37.876 243.263 31.5513C238.95 39.5548 236.93 44.552 234.405 50.174C233.822 51.4623 233.084 53.4534 232.035 53.4534C231.724 53.4534 231.064 53.1021 230.831 52.9068L228.306 51.2671L228.655 50.7986C229.005 51.15 229.471 51.2671 229.86 51.2671C231.025 51.2671 232.074 49.7055 232.89 48.4562C235.687 44.2007 240.155 34.05 243.029 27.0226L244.195 26.5541C246.176 31.3561 252.353 45.8014 253.635 48.4952C254.412 50.0568 254.995 51.0719 255.85 52.2822L252.12 53.1801C251.926 52.7116 251.809 52.2041 251.615 51.7356Z" fill="#DE0052" stroke="#DE0052"/>
<path d="M262.765 37.7198C264.98 36.7047 267.077 36.3143 269.525 36.3143C274.575 36.3143 279.587 38.7348 279.587 44.552C279.587 46.7773 278.965 48.8075 277.139 50.5643C274.575 53.102 271.739 53.2191 268.748 53.2191C264.941 53.2191 263.698 52.9849 259.541 52.6335C259.851 51.228 259.929 49.9397 259.929 48.5342V37.2513C259.929 31.239 259.696 28.9355 259.308 27.0225L263.27 26.4369C262.882 28.7013 262.765 30.7705 262.765 35.7287V37.7198ZM262.765 50.7986C264.319 51.3842 266.184 51.7746 268.359 51.7746C270.729 51.7746 272.827 51.2671 274.303 50.0958C276.052 48.6903 276.44 46.9335 276.44 45.1766C276.44 43.6931 276.207 41.5458 274.342 39.867C272.827 38.5006 270.457 37.7979 268.476 37.7979C265.679 37.7979 263.814 38.891 262.765 39.789V50.7986Z" fill="#DE0052" stroke="#DE0052"/>
<path d="M288.424 15.968H287.056V6.968H291.16C292.072 6.968 292.792 7.2 293.32 7.664C293.864 8.128 294.136 8.744 294.136 9.512C294.136 10.136 293.96 10.664 293.608 11.096C293.256 11.528 292.768 11.816 292.144 11.96L295 15.968H293.44L290.68 12.08H288.424V15.968ZM288.424 8.144V10.952H291.112C291.624 10.952 292.024 10.832 292.312 10.592C292.6 10.352 292.744 10.008 292.744 9.56C292.744 8.616 292.2 8.144 291.112 8.144H288.424ZM284.68 17.312C286.232 18.864 288.12 19.64 290.344 19.64C292.568 19.64 294.464 18.856 296.032 17.288C297.584 15.736 298.36 13.84 298.36 11.6C298.36 9.36 297.584 7.464 296.032 5.912C294.496 4.344 292.608 3.56 290.368 3.56C288.16 3.56 286.272 4.352 284.704 5.936C283.152 7.488 282.376 9.384 282.376 11.624C282.376 13.848 283.144 15.744 284.68 17.312ZM281.68 11.576C281.68 9.192 282.528 7.152 284.224 5.456C285.92 3.76 287.968 2.912 290.368 2.912C292.784 2.912 294.832 3.76 296.512 5.456C298.208 7.152 299.056 9.208 299.056 11.624C299.056 14.008 298.208 16.048 296.512 17.744C294.816 19.44 292.76 20.288 290.344 20.288C287.928 20.288 285.88 19.44 284.2 17.744C282.52 16.048 281.68 13.992 281.68 11.576Z" fill="#DE0052"/>
</svg>
