<svg width="130" height="23" viewBox="0 0 130 23" fill="none" xmlns="http://www.w3.org/2000/svg">
<path d="M0.247516 19.7029V7.64725C0.247516 6.60254 0.198013 5.8729 0 4.96085C1.61711 4.76186 2.49167 4.56287 3.67974 4.56287C6.46843 4.56287 9.0261 5.7734 9.0261 9.00703C9.0261 11.2457 7.574 12.3567 6.23741 12.8874C7.14498 13.0366 8.34956 13.4346 9.17461 14.1477C10.5112 15.2753 10.7257 16.6516 10.7257 17.7793C10.7257 19.8853 9.73565 21.1124 8.72908 21.8254C7.68951 22.5385 6.0889 22.9365 4.70281 22.9365C2.90419 22.9365 3.86126 22.5883 0 22.3395C0.198013 21.444 0.247516 20.731 0.247516 19.7029ZM4.5543 22.1405C5.89089 22.1405 7.12847 21.726 7.92053 20.9797C8.64657 20.3164 9.15811 19.2717 9.15811 18.028C9.15811 15.9883 7.75552 14.6286 6.33642 14.0316C5.67638 13.7663 4.68631 13.5673 4.04277 13.5673C3.89426 13.5673 3.66324 13.5673 2.80519 13.6668L3.13521 12.6884C3.30022 12.7216 3.51473 12.7216 3.67974 12.7216C4.63681 12.7216 5.65988 12.4894 6.35292 11.9919C7.42549 11.2291 7.541 10.1015 7.541 9.33868C7.541 8.39347 7.34299 7.697 6.71595 6.90103C5.67638 5.60758 4.4718 5.37542 3.59724 5.37542C2.50817 5.37542 2.04614 5.57441 1.71611 5.7734V21.444C2.39266 21.8255 3.34972 22.1405 4.5543 22.1405Z" fill="#DE0052"/>
<path d="M15.0156 15.2257V20.2171C16.9957 18.0945 20.0319 14.1479 21.9955 11.4449L22.6556 11.2791C22.4906 12.2408 22.4411 13.1197 22.4411 15.2257V18.0116C22.4411 20.5654 22.5401 21.5437 22.7051 22.3563L21.022 22.605C21.187 21.6598 21.2365 20.8639 21.2365 18.6584V13.7665C20.3289 14.7283 18.8438 16.3534 14.2895 22.4724L13.6295 22.6216C13.7615 21.7262 13.8275 20.8141 13.8275 18.6749V15.8725C13.8275 13.3187 13.7285 12.3403 13.5635 11.5278L15.2466 11.2791C15.0651 12.2408 15.0156 13.1197 15.0156 15.2257Z" fill="#DE0052"/>
<path d="M28.5633 20.0014V11.8925C28.1838 11.8593 27.8703 11.8593 27.5733 11.8593C25.8901 11.8593 25.0156 12.1412 24.3555 12.5558L24.207 12.4563L24.7516 11.2624H30.791C32.2926 11.2624 33.7117 11.1794 33.9757 10.1016L34.2067 10.1845L33.9592 11.196C33.7282 12.1081 33.0846 12.1744 32.7711 12.1744C32.2596 12.1744 31.781 12.0749 31.2365 11.992C30.8405 11.9422 30.527 11.8925 30.0814 11.8925H29.7514V19.9848C29.7514 21.0627 29.7514 21.5768 29.9164 22.3893L28.3818 22.6049C28.5303 21.7758 28.5633 21.0959 28.5633 20.0014Z" fill="#DE0052"/>
<path d="M35.4938 12.39C35.4443 12.3403 35.4278 12.2905 35.4278 12.2408C35.4278 12.2242 35.4443 12.1745 35.4773 12.1081C35.7248 11.7931 36.3519 11.5609 36.5169 11.4946C37.2099 11.2127 37.7545 11.0137 38.761 11.0137C40.4111 11.0137 41.5332 11.5609 42.1932 12.1413C43.3813 13.1528 43.5793 14.38 43.5793 15.292V21.1125V21.4608C43.5793 21.7095 43.5958 21.9748 43.7444 22.3562C42.5068 22.5221 41.2527 22.605 39.8831 22.605C38.728 22.605 37.1934 22.5221 36.1208 21.7593C35.2958 21.1623 34.6357 20.0678 34.6357 18.8739C34.6357 18.0945 34.8833 17.0664 36.0878 16.2372C37.2429 15.4413 38.728 15.3418 39.4211 15.3418C40.3946 15.3418 41.4012 15.4744 42.3583 15.7563V15.4247C42.3583 14.5126 42.1602 13.186 41.4177 12.4398C41.0052 12.0252 40.2626 11.6106 38.992 11.6106C38.4805 11.6106 37.7379 11.6936 37.1604 12.0584C36.7479 12.3237 36.5664 12.6554 36.5664 13.0699C36.5664 13.2026 36.6159 13.4016 36.8634 13.8161L36.7149 13.9654L35.4938 12.39ZM42.3913 16.8176C41.5002 16.287 40.3946 15.9719 39.4211 15.9719C38.4805 15.9719 37.4904 16.2538 36.8469 16.8508C36.3519 17.3151 35.9723 18.1111 35.9723 18.9734C35.9723 20.2668 36.5664 22.008 39.8336 22.008C41.0877 22.008 41.7807 21.7593 42.3748 21.3613V16.8176H42.3913Z" fill="#DE0052"/>
<path d="M45.9387 11.279C46.0047 11.1795 46.0872 11.0303 46.2852 11.0303C46.4502 11.0303 46.6813 11.1629 47.1268 11.6273C48.2819 12.871 47.8198 12.4398 52.3246 16.7181C50.9385 18.1277 49.1069 20.0678 47.6713 21.6598C47.3413 22.0412 47.0938 22.2899 46.7968 22.804L45.0146 22.3563C46.4172 21.3447 47.1433 20.4161 48.1829 19.3714L50.9055 16.6186L50.922 16.5191C49.965 15.2091 48.3974 13.7167 46.9453 12.7217C46.7308 12.5725 46.3677 12.3237 46.0377 12.3237C45.7077 12.3237 45.4932 12.5393 45.2457 12.788L45.0972 12.6388L45.9387 11.279ZM54.1068 11.279C53.9417 12.2408 53.8922 13.1197 53.8922 15.2257V18.0116C53.8922 20.5653 53.9912 21.5437 54.1728 22.3563L52.4896 22.605C52.6547 21.6598 52.7207 20.8638 52.7207 18.6583V15.8724C52.7207 13.3187 52.6217 12.3403 52.4401 11.5278L54.1068 11.279ZM61.2847 12.788C61.0372 12.5393 60.8392 12.3237 60.4927 12.3237C60.1462 12.3237 59.7996 12.5725 59.5851 12.7217C58.133 13.7167 56.5654 15.2091 55.6084 16.5191L55.6414 16.6186L58.364 19.3714C59.4036 20.4161 60.1132 21.3281 61.5322 22.3563L59.7501 22.804C59.4531 22.2733 59.2056 22.0246 58.8756 21.6598C57.44 20.0678 55.6084 18.1277 54.2223 16.7181C58.7271 12.4398 58.2485 12.871 59.4201 11.6273C59.8656 11.1464 60.0802 11.0303 60.2617 11.0303C60.4597 11.0303 60.5257 11.1795 60.6082 11.279L61.4497 12.6554L61.2847 12.788Z" fill="#DE0052"/>
<path d="M64.6015 15.2257V20.2171C66.5816 18.0945 69.6178 14.1479 71.5815 11.4449L72.2415 11.2791C72.0765 12.2408 72.027 13.1197 72.027 15.2257V18.0116C72.027 20.5654 72.126 21.5437 72.291 22.3563L70.6079 22.605C70.7729 21.6598 70.8224 20.8639 70.8224 18.6584V13.7665C69.9149 14.7283 68.4298 16.3534 63.8755 22.4724L63.2154 22.6216C63.3474 21.7262 63.4134 20.8141 63.4134 18.6749V15.8725C63.4134 13.3187 63.3144 12.3403 63.1494 11.5278L64.8325 11.2791C64.651 12.2408 64.6015 13.1197 64.6015 15.2257Z" fill="#DE0052"/>
<path d="M76.9447 11.279C76.7797 12.2408 76.7302 13.1197 76.7302 15.2257V16.1875C77.5388 16.287 78.2648 16.3533 79.4694 16.3533C81.0535 16.3533 81.8126 16.3533 82.7531 16.2041V15.8559C82.7531 13.3021 82.6541 12.3237 82.4726 11.5112L84.1557 11.2625C83.9907 12.2242 83.9412 13.1031 83.9412 15.2091V17.995C83.9412 20.5488 84.0402 21.5271 84.2217 22.3397L82.5386 22.5884C82.7036 21.6432 82.7696 20.8472 82.7696 18.6417V17.1493C81.8291 17.0001 81.367 16.9835 80.41 16.9835H79.6179H78.4958C77.9843 16.9835 77.4398 17.0001 76.7137 17.1327V18.0116C76.7137 20.5653 76.8127 21.5437 76.9777 22.3563L75.2946 22.605C75.4596 21.6598 75.5091 20.8638 75.5091 18.6583V15.8724C75.5091 13.3187 75.4101 12.3403 75.2451 11.5278L76.9447 11.279Z" fill="#DE0052"/>
<path d="M87.3903 12.39C87.3408 12.3403 87.3243 12.2905 87.3243 12.2408C87.3243 12.2242 87.3408 12.1745 87.3738 12.1081C87.6213 11.7931 88.2483 11.5609 88.4133 11.4946C89.1064 11.2127 89.6509 11.0137 90.6575 11.0137C92.3076 11.0137 93.4297 11.5609 94.0897 12.1413C95.2778 13.1528 95.4758 14.38 95.4758 15.292V21.1125V21.4608C95.4758 21.7095 95.4923 21.9748 95.6408 22.3562C94.4032 22.5221 93.1492 22.605 91.7796 22.605C90.6245 22.605 89.0899 22.5221 88.0173 21.7593C87.1923 21.1623 86.5322 20.0678 86.5322 18.8739C86.5322 18.0945 86.7797 17.0664 87.9843 16.2372C89.1394 15.4413 90.6245 15.3418 91.3175 15.3418C92.2911 15.3418 93.2977 15.4744 94.2547 15.7563V15.4247C94.2547 14.5126 94.0567 13.186 93.3142 12.4398C92.9016 12.0252 92.1591 11.6106 90.8885 11.6106C90.377 11.6106 89.6344 11.6936 89.0569 12.0584C88.6444 12.3237 88.4628 12.6554 88.4628 13.0699C88.4628 13.2026 88.5124 13.4016 88.7599 13.8161L88.6114 13.9654L87.3903 12.39ZM94.3042 16.8176C93.4132 16.287 92.3076 15.9719 91.334 15.9719C90.3935 15.9719 89.4034 16.2538 88.7599 16.8508C88.2648 17.3151 87.8853 18.1111 87.8853 18.9734C87.8853 20.2668 88.4794 22.008 91.7466 22.008C93.0007 22.008 93.6937 21.7593 94.2877 21.3613V16.8176H94.3042Z" fill="#DE0052"/>
<path d="M106.449 21.9749C106.35 21.6764 106.284 21.4111 106.184 21.1126C105.343 18.5754 104.122 16.088 102.901 13.4016C101.069 16.8011 100.211 18.9237 99.1385 21.3116C98.891 21.8588 98.5775 22.7045 98.132 22.7045C98 22.7045 97.7194 22.5553 97.6204 22.4724L96.5479 21.7759L96.6964 21.5769C96.8449 21.7261 97.0429 21.7759 97.2079 21.7759C97.7029 21.7759 98.1485 21.1126 98.495 20.5819C99.6831 18.7744 101.581 14.4629 102.802 11.478L103.297 11.2791C104.138 13.3187 106.762 19.4543 107.307 20.5985C107.637 21.2618 107.884 21.693 108.247 22.207L106.663 22.5884C106.581 22.3895 106.531 22.1739 106.449 21.9749Z" fill="#DE0052"/>
<path d="M111.184 16.0215C112.125 15.5904 113.016 15.4245 114.056 15.4245C116.201 15.4245 118.329 16.4527 118.329 18.9235C118.329 19.8687 118.065 20.731 117.29 21.4772C116.201 22.5551 114.996 22.6049 113.726 22.6049C112.108 22.6049 111.58 22.5054 109.815 22.3561C109.947 21.7591 109.98 21.2119 109.98 20.6149V15.8225C109.98 13.2688 109.881 12.2904 109.716 11.4779L111.399 11.2291C111.234 12.1909 111.184 13.0698 111.184 15.1758V16.0215ZM111.184 21.5767C111.844 21.8255 112.637 21.9913 113.561 21.9913C114.567 21.9913 115.458 21.7757 116.085 21.2782C116.828 20.6813 116.993 19.935 116.993 19.1888C116.993 18.5587 116.894 17.6466 116.102 16.9336C115.458 16.3532 114.452 16.0547 113.61 16.0547C112.422 16.0547 111.63 16.519 111.184 16.9004V21.5767Z" fill="#DE0052"/>
<path d="M122.914 8.648H122.116V3.398H124.51C125.042 3.398 125.462 3.53333 125.77 3.804C126.087 4.07467 126.246 4.434 126.246 4.882C126.246 5.246 126.143 5.554 125.938 5.806C125.733 6.058 125.448 6.226 125.084 6.31L126.75 8.648H125.84L124.23 6.38H122.914V8.648ZM122.914 4.084V5.722H124.482C124.781 5.722 125.014 5.652 125.182 5.512C125.35 5.372 125.434 5.17133 125.434 4.91C125.434 4.35933 125.117 4.084 124.482 4.084H122.914ZM120.73 9.432C121.635 10.3373 122.737 10.79 124.034 10.79C125.331 10.79 126.437 10.3327 127.352 9.418C128.257 8.51267 128.71 7.40667 128.71 6.1C128.71 4.79333 128.257 3.68733 127.352 2.782C126.456 1.86733 125.355 1.41 124.048 1.41C122.76 1.41 121.659 1.872 120.744 2.796C119.839 3.70133 119.386 4.80733 119.386 6.114C119.386 7.41133 119.834 8.51733 120.73 9.432ZM118.98 6.086C118.98 4.69533 119.475 3.50533 120.464 2.516C121.453 1.52667 122.648 1.032 124.048 1.032C125.457 1.032 126.652 1.52667 127.632 2.516C128.621 3.50533 129.116 4.70467 129.116 6.114C129.116 7.50467 128.621 8.69467 127.632 9.684C126.643 10.6733 125.443 11.168 124.034 11.168C122.625 11.168 121.43 10.6733 120.45 9.684C119.47 8.69467 118.98 7.49533 118.98 6.086Z" fill="#DE0052"/>
</svg>
