<svg width="41" height="41" viewBox="0 0 41 41" fill="none" xmlns="http://www.w3.org/2000/svg">
<circle cx="20.5" cy="20.5" r="20.5" fill="#FFF3F7"/>
<path d="M12.1033 17.6316C12.0088 17.5371 11.8778 17.4833 11.7442 17.4833C11.6101 17.4833 11.4796 17.5371 11.3846 17.6316C11.2902 17.7265 11.2363 17.857 11.2363 17.9912C11.2363 18.1247 11.2902 18.2558 11.3846 18.3502C11.4796 18.4447 11.6101 18.499 11.7442 18.499C11.8778 18.499 12.0088 18.4447 12.1033 18.3502C12.1977 18.2553 12.2521 18.1248 12.2521 17.9912C12.2521 17.8575 12.1978 17.7265 12.1033 17.6316Z" fill="#613768"/>
<path d="M31.1246 12.1657C31.374 12.0706 31.5895 11.9884 31.7536 11.8843C31.9383 11.7672 32.0936 11.6448 32.2285 11.51C33.2585 10.4799 33.2583 8.80345 32.228 7.77286C31.1974 6.74258 29.5211 6.74232 28.4909 7.77245C28.3564 7.90698 28.2339 8.06222 28.1165 8.24722C28.0125 8.41135 27.9303 8.62672 27.8352 8.87607C27.7437 9.11596 27.5326 9.6696 27.3804 9.7638C27.3675 9.75948 27.343 9.74923 27.306 9.7251C26.5861 9.25633 24.9989 8.50936 23.7677 8.74697L23.3596 8.33888C23.0016 7.98086 22.5256 7.78373 22.0193 7.78373C21.513 7.78373 21.037 7.98086 20.679 8.33888C20.3209 8.6969 20.1238 9.17289 20.1238 9.6792C20.1238 9.93738 20.1753 10.1875 20.273 10.4183C19.307 10.359 18.321 10.6968 17.5844 11.4333L12.5599 16.4578C12.3616 16.6562 12.3616 16.9778 12.5599 17.1761C12.7582 17.3744 13.0798 17.3744 13.2782 17.1761L16.1291 14.3252L17.9359 16.1319C18.0351 16.2311 18.1651 16.2807 18.2951 16.2807C18.4251 16.2807 18.5551 16.231 18.6542 16.1319C18.8525 15.9336 18.8525 15.612 18.6542 15.4137L16.8474 13.6069L18.3027 12.1517C18.7713 11.6831 19.3943 11.4251 20.0569 11.4251C20.7195 11.4251 21.3424 11.6831 21.8111 12.1517L27.849 18.1896C28.3176 18.6582 28.5756 19.2812 28.5756 19.9438C28.5756 20.6064 28.3176 21.2294 27.849 21.698L18.0374 31.5098C17.4031 32.1442 16.371 32.1442 15.7366 31.5098L8.49102 24.2643C7.85669 23.63 7.85669 22.5978 8.49102 21.9635L10.8278 19.6267C11.0261 19.4284 11.0261 19.1068 10.8278 18.9085C10.6295 18.7101 10.3079 18.7102 10.1095 18.9085L7.77275 21.2452C6.74242 22.2756 6.74242 23.9521 7.77275 24.9825L15.0184 32.2281C15.5336 32.7433 16.2103 33.0009 16.887 33.0009C17.5637 33.0009 18.2405 32.7433 18.7557 32.2281L28.5674 22.4164C29.3039 21.6798 29.6417 20.6937 29.5824 19.7278C29.8132 19.8255 30.0634 19.877 30.3216 19.877C30.8279 19.877 31.3039 19.6799 31.6619 19.3218C32.4009 18.5829 32.4009 17.3803 31.6619 16.6413L31.2538 16.2332C31.4914 15.002 30.7445 13.4148 30.2757 12.6949C30.2516 12.6579 30.2413 12.6334 30.237 12.6205C30.3313 12.4683 30.8847 12.2572 31.1246 12.1657ZM30.3283 16.7442C30.3285 16.7443 30.3287 16.7445 30.3288 16.7446L30.9437 17.3594C31.2866 17.7025 31.2866 18.2606 30.9436 18.6036C30.7775 18.7697 30.5565 18.8612 30.3216 18.8612C30.0866 18.8612 29.8657 18.7697 29.6995 18.6035L21.3973 10.3013C21.2312 10.1352 21.1397 9.91427 21.1397 9.6793C21.1397 9.44432 21.2312 9.22337 21.3974 9.05726C21.5688 8.88576 21.7942 8.80004 22.0194 8.80004C22.2447 8.80004 22.47 8.88576 22.6415 9.05726L23.2566 9.67239C23.2566 9.67244 23.2567 9.67254 23.2568 9.67259L30.3283 16.7442ZM29.4245 13.2492C29.7949 13.818 30.1123 14.5636 30.2333 15.2126L24.7882 9.76761C25.4373 9.88852 26.1829 10.206 26.7517 10.5764C27.1434 10.8314 27.4756 10.8035 27.6855 10.7353C28.2881 10.5392 28.5632 9.81773 28.7842 9.2381C28.8502 9.06508 28.925 8.86885 28.9741 8.79141C29.051 8.67034 29.1278 8.57203 29.2091 8.49078C29.8431 7.85675 30.8752 7.8569 31.5096 8.49118C32.1439 9.12566 32.1442 10.1577 31.5101 10.7918C31.4288 10.8731 31.3305 10.9499 31.2096 11.0265C31.1318 11.0758 30.9356 11.1506 30.7626 11.2166C30.183 11.4377 29.4617 11.7128 29.2655 12.3154C29.1974 12.5252 29.1695 12.8575 29.4245 13.2492Z" fill="#613768"/>
<path d="M25.9896 21.0821L23.8719 18.9644C23.6736 18.7661 23.352 18.7661 23.1536 18.9644C22.9553 19.1627 22.9553 19.4843 23.1536 19.6827L25.2713 21.8004C25.3705 21.8996 25.5004 21.9491 25.6305 21.9491C25.7604 21.9491 25.8905 21.8996 25.9896 21.8004C26.1879 21.6021 26.1879 21.2805 25.9896 21.0821Z" fill="#613768"/>
<path d="M23.5735 23.4974L21.4558 21.3797C21.2576 21.1813 20.936 21.1813 20.7376 21.3797C20.5393 21.578 20.5393 21.8996 20.7376 22.0979L22.8553 24.2156C22.9545 24.3148 23.0844 24.3644 23.2144 24.3644C23.3444 24.3644 23.4744 24.3148 23.5736 24.2156C23.7718 24.0173 23.7718 23.6957 23.5735 23.4974Z" fill="#613768"/>
<path d="M21.1585 25.9125L19.0408 23.7948C18.8425 23.5965 18.5209 23.5965 18.3226 23.7948C18.1243 23.9931 18.1243 24.3147 18.3226 24.5131L20.4403 26.6308C20.5394 26.7299 20.6694 26.7795 20.7994 26.7795C20.9293 26.7795 21.0594 26.7299 21.1585 26.6308C21.3568 26.4325 21.3568 26.1109 21.1585 25.9125Z" fill="#613768"/>
<path d="M18.7434 28.3277L16.6257 26.21C16.4274 26.0117 16.1058 26.0117 15.9075 26.21C15.7092 26.4083 15.7092 26.7299 15.9075 26.9283L18.0252 29.046C18.1244 29.1452 18.2543 29.1947 18.3844 29.1947C18.5144 29.1947 18.6444 29.1452 18.7435 29.046C18.9418 28.8477 18.9418 28.5261 18.7434 28.3277Z" fill="#613768"/>
<path d="M20.3592 17.1181C20.2647 17.0236 20.1337 16.9698 20.0001 16.9698C19.8665 16.9698 19.7354 17.0236 19.641 17.1181C19.546 17.2125 19.4922 17.3435 19.4922 17.4777C19.4922 17.6112 19.546 17.7423 19.641 17.8368C19.7354 17.9312 19.8665 17.9855 20.0001 17.9855C20.1336 17.9855 20.2647 17.9313 20.3592 17.8368C20.4536 17.7423 20.5079 17.6113 20.5079 17.4777C20.5079 17.3436 20.4536 17.213 20.3592 17.1181Z" fill="#613768"/>
</svg>
