<svg width="41" height="41" viewBox="0 0 41 41" fill="none" xmlns="http://www.w3.org/2000/svg">
<circle cx="20.5" cy="20.5" r="20.5" fill="#FFF3F7"/>
<g clip-path="url(#clip0)">
<path d="M28.9734 11.0281C27.6025 9.6573 25.372 9.6573 24.0012 11.0281L16.2117 18.8177C15.7238 19.3056 15.3195 19.8653 15.0098 20.4817L13.5304 23.1562L10.6885 25.9982C10.2457 26.4409 10.002 27.0295 10.002 27.6556C10.002 28.2817 10.2457 28.8703 10.6885 29.3129C11.6045 30.229 13.0871 30.229 14.0032 29.3129L16.8452 26.471L19.5198 24.9916C20.1362 24.6819 20.696 24.2776 21.1838 23.7898C21.6092 23.3644 28.744 16.2295 28.9734 16.0002C30.3441 14.6294 30.3441 12.3989 28.9734 11.0281ZM13.1745 28.4843C12.7165 28.9423 11.9752 28.9423 11.5172 28.4843H11.5171C11.0602 28.0273 11.0602 27.2838 11.5172 26.8269L14.0032 24.3408L15.6606 25.9982L13.1745 28.4843ZM18.9844 23.949C18.9772 23.9526 18.97 23.9564 18.9629 23.9603L16.5917 25.2719L14.7295 23.4098L16.0411 21.0386C16.045 21.0315 16.0488 21.0243 16.0524 21.017C16.4392 20.2435 16.8819 19.8047 17.1914 19.4954C17.1713 20.3957 17.472 21.2572 18.1082 21.8933C18.7465 22.5317 19.6073 22.8297 20.5061 22.8102C20.2682 23.048 19.8054 23.5385 18.9844 23.949ZM22.666 20.6502C21.5236 21.7925 19.8508 21.9784 18.9369 21.0646C18.0231 20.1507 18.2089 18.478 19.3511 17.3356L19.3515 17.3352C20.4876 16.1993 22.1651 16.0059 23.0803 16.9211C23.9957 17.8365 23.8017 19.5144 22.666 20.6502ZM24.8299 18.4863C24.8508 17.5545 24.5289 16.7123 23.909 16.0924C23.2891 15.4726 22.4466 15.1507 21.5152 15.1715L24.0012 12.6855L27.3161 16.0003L24.8299 18.4863ZM28.1446 15.1715L24.8298 11.8568C25.7438 10.9429 27.2308 10.943 28.1446 11.8568C29.0585 12.7706 29.0585 14.2576 28.1446 15.1715Z" fill="#613768"/>
<path d="M22.2505 19.4073L20.5931 17.7499C20.3643 17.521 19.9932 17.521 19.7644 17.7499C19.5356 17.9787 19.5356 18.3497 19.7644 18.5785L21.4218 20.2359C21.6506 20.4648 22.0217 20.4648 22.2505 20.2359C22.4793 20.0071 22.4793 19.6361 22.2505 19.4073Z" fill="#613768"/>
</g>
<defs>
<clipPath id="clip0">
<rect width="20" height="20" fill="white" transform="translate(10 10)"/>
</clipPath>
</defs>
</svg>
