<svg width="41" height="41" viewBox="0 0 41 41" fill="none" xmlns="http://www.w3.org/2000/svg">
<circle cx="20.5" cy="20.5" r="20.5" fill="#FFF3F7"/>
<path d="M25.4765 11C24.1087 11 22.7727 11.3845 21.6118 12.112C21.3891 12.2324 19.7013 13.2082 19.9632 14.9859C20.0589 15.6352 20.4024 16.0992 20.7347 16.548C21.2036 17.1813 21.6511 17.7866 21.5291 19.0113C21.5224 19.0078 21.5163 19.0037 21.5096 19.0003C21.1625 18.8233 20.7673 18.7922 20.3967 18.9125C20.0575 19.0227 19.7765 19.248 19.5958 19.5515C19.4723 19.432 19.3312 19.3293 19.1748 19.2472C18.9024 19.1041 18.6049 19.034 18.3056 19.0385C18.2831 18.7947 18.2958 18.6346 18.3102 18.4551C18.3284 18.228 18.349 17.9706 18.2943 17.5657C18.1877 16.7791 17.7372 16.0919 17.0257 15.6306C16.1675 15.0741 15.0141 14.9109 14.0156 15.2043C12.1998 15.738 11.1501 17.6502 11.6755 19.467C11.8306 20.0031 12.1155 20.4976 12.4995 20.897C12.7011 21.1067 12.8101 21.3835 12.7988 21.6564C12.7665 22.4319 12.8737 23.2022 13.1172 23.9458C13.6388 25.5382 14.7723 26.8548 16.309 27.6529C17.2707 28.1524 18.3077 28.406 19.3422 28.406C19.9604 28.406 20.5777 28.3154 21.1773 28.1325C21.5093 28.0313 21.8346 27.9032 22.1441 27.7518C22.9908 27.3376 23.662 26.6305 24.034 25.7606C24.2413 25.2758 24.3485 24.7575 24.3538 24.2373C24.5836 24.2795 24.8265 24.2673 25.0627 24.1911C25.8204 23.947 26.2409 23.1196 26.0005 22.347L25.6276 21.1491C25.3797 20.3533 24.7517 19.7469 23.9476 19.5271C23.4343 19.3869 22.9028 19.4193 22.4246 19.6062C22.777 17.673 22.0841 16.7363 21.5163 15.9694C21.2314 15.5846 20.9855 15.2523 20.9253 14.8441C20.7529 13.6739 22.0254 12.9928 22.0781 12.9652C22.0907 12.9587 22.103 12.9517 22.1149 12.9442C23.1241 12.3083 24.2866 11.9722 25.4768 11.9722C29.0281 11.9722 31.9173 14.9412 31.9173 18.5907C31.9173 22.5954 28.7729 25.9607 26.1351 28.0785C23.6651 30.0616 21.1625 31.3537 20.4443 31.7072C19.7538 31.3673 17.4159 30.1611 15.0447 28.309C14.8331 28.1438 14.5276 28.1813 14.3623 28.3929C14.197 28.6045 14.2346 28.9099 14.4462 29.0752C17.3504 31.3438 20.1238 32.6344 20.2405 32.6882C20.3051 32.7181 20.3746 32.733 20.4442 32.733C20.5137 32.733 20.5832 32.718 20.6478 32.6882C20.7722 32.6309 23.7261 31.2559 26.7277 28.8494C28.5018 27.4272 29.9182 25.9399 30.9375 24.4292C32.2326 22.5097 32.8892 20.5454 32.8892 18.5908C32.8893 14.4052 29.5639 11 25.4765 11ZM17.6653 20.7285C17.8855 20.5349 18.1233 20.3256 18.2526 20.0148C18.4138 19.9996 18.5761 20.0309 18.7228 20.1079C18.8934 20.1975 19.0249 20.3395 19.1017 20.5131L18.8989 20.9109L17.4926 20.8831C17.5509 20.829 17.6087 20.7781 17.6653 20.7285ZM21.9375 21.3719L22.0995 21.0542C22.1641 20.9585 22.2406 20.8698 22.3282 20.7905C22.6992 20.4549 23.2086 20.3332 23.6911 20.465C24.1735 20.5969 24.5503 20.9608 24.699 21.4383L25.072 22.6361C25.1547 22.902 25.0167 23.1845 24.7642 23.2658C24.5245 23.3433 24.2651 23.2235 24.1678 22.9933L23.8836 22.0805C23.8038 21.8241 23.5313 21.681 23.2749 21.7608C23.0186 21.8407 22.8755 22.1131 22.9553 22.3695L23.2469 23.3062C23.6872 24.7271 23.0436 26.2295 21.7167 26.8785C21.4534 27.0073 21.1764 27.1164 20.8935 27.2026C18.0909 28.0573 14.9528 26.4271 14.041 23.6433C13.8338 23.0106 13.7426 22.3557 13.77 21.6969C13.7923 21.1604 13.5847 20.6234 13.2003 20.2234C12.9212 19.933 12.7223 19.5877 12.6094 19.1969C12.2322 17.8929 12.986 16.5202 14.2896 16.1371C14.5322 16.0658 14.7869 16.031 15.0419 16.031C15.5588 16.031 16.0768 16.1741 16.4967 16.4463C16.8292 16.6619 17.2437 17.0537 17.3307 17.6962C17.3715 17.9972 17.3574 18.1733 17.341 18.3772C17.3212 18.6246 17.2987 18.9049 17.3675 19.3793C17.407 19.6522 17.3534 19.7081 17.0233 19.9982C16.9326 20.078 16.8297 20.1683 16.7232 20.2733C16.7231 20.2735 16.7197 20.2768 16.7196 20.2769L16.7137 20.2827C16.4477 20.5425 16.3641 20.933 16.5004 21.2775C16.6358 21.6194 16.9614 21.8451 17.3299 21.8524L18.9985 21.8854C19.2977 21.8919 19.5755 21.7242 19.7107 21.459L20.4142 20.0788C20.4731 19.9632 20.5736 19.8774 20.697 19.8373C20.8206 19.7972 20.9523 19.8075 21.068 19.8666C21.1837 19.9255 21.2695 20.026 21.3096 20.1495C21.3497 20.273 21.3393 20.4047 21.2803 20.5204L21.2556 20.569C21.1745 20.697 21.1058 20.832 21.0502 20.9719L20.5769 21.9005C20.3642 22.3178 19.9825 22.638 19.5296 22.7791C19.3502 22.8349 19.165 22.8614 18.9792 22.8576L16.8768 22.8153C16.6071 22.8102 16.3864 23.0232 16.381 23.2916C16.3756 23.56 16.5888 23.782 16.8573 23.7874L18.9597 23.8297C19.2502 23.8353 19.5392 23.7944 19.8186 23.7074C20.3084 23.5549 20.7449 23.2662 21.0763 22.885L21.4189 23.9853C21.4987 24.2416 21.771 24.3848 22.0276 24.3049C22.2839 24.2251 22.427 23.9526 22.3472 23.6962L21.9142 22.3056C21.8177 21.9952 21.8301 21.6671 21.9375 21.3719Z" fill="#613768"/>
<path d="M13.6892 27.1751L13.6752 27.1626C13.4754 26.9833 13.1681 26.9998 12.9887 27.1995C12.8093 27.3993 12.8258 27.7067 13.0256 27.886L13.0395 27.8985C13.1324 27.9819 13.2485 28.023 13.3642 28.023C13.4974 28.023 13.63 27.9685 13.726 27.8616C13.9054 27.6618 13.8889 27.3545 13.6892 27.1751Z" fill="#613768"/>
<path d="M19.2926 12.1218C18.1282 11.3879 16.7866 11 15.4128 11C11.3254 11 8 14.4052 8 18.5908C8 21.234 9.18878 23.8668 11.5333 26.4162C11.6292 26.5204 11.76 26.5732 11.8913 26.5732C12.0089 26.5732 12.1268 26.5307 12.2202 26.4448C12.4178 26.2631 12.4307 25.9556 12.249 25.7579C10.0747 23.3938 8.97226 20.9824 8.97226 18.5908C8.97226 14.9413 11.8615 11.9723 15.4128 11.9723C16.6028 11.9723 17.7653 12.3084 18.7743 12.9443C19.0013 13.0875 19.3016 13.0194 19.4447 12.7923C19.5878 12.5651 19.5197 12.265 19.2926 12.1218Z" fill="#613768"/>
<path d="M25.4774 13.3108C25.2089 13.3108 24.9912 13.5284 24.9912 13.7969C24.9912 14.0654 25.2089 14.283 25.4773 14.283H25.48C25.7485 14.283 25.9648 14.0654 25.9648 13.7969C25.9648 13.5284 25.7459 13.3108 25.4774 13.3108Z" fill="#613768"/>
<path d="M29.6994 15.5545C29.0981 14.6805 28.2655 14.0208 27.2915 13.6465C27.0409 13.5502 26.7597 13.6753 26.6633 13.9259C26.567 14.1765 26.6921 14.4577 26.9427 14.554C28.5711 15.1798 29.6651 16.8021 29.6651 18.5908C29.6651 18.8593 29.8828 19.0769 30.1513 19.0769C30.4198 19.0769 30.6374 18.8593 30.6374 18.5908C30.6374 17.4964 30.313 16.4464 29.6994 15.5545Z" fill="#613768"/>
</svg>
